<?xml version="1.0"?>
<svg width="480" height="480" xmlns="http://www.w3.org/2000/svg" xmlns:svg="http://www.w3.org/2000/svg">
 <metadata id="metadata7">image/svg+xmlicon_star2008-05-12Jean-Victor Balinfr-FRiconstarfavouritejean.victor.balin@gmail.com</metadata>
 <g class="layer">
  <title>Layer 1</title>
  <g id="layer1">
   <rect fill=" rgb(66, 123, 195)" height="0" id="rect3465" width="97.510462" x="255.530805" y="202.367032"/>
   <path d="m239.364247,14.969502c-6.690029,-0.155781 -12.85789,3.603346 -15.786316,9.621397l-64.382424,130.759075l-143.558938,21.099064c-6.446921,0.909278 -11.818476,5.401255 -13.8572,11.583999c-2.038897,6.184399 -0.391502,12.988059 4.249626,17.555076l104.510766,101.52507l-24.838506,143.470378c-1.147692,6.51213 1.560458,13.103735 6.954812,16.929152c5.396323,3.823935 12.511685,4.198207 18.277002,0.958501l128.894389,-67.516654l128.429026,67.207872c5.737963,2.988053 12.67004,2.484402 17.914422,-1.301775c5.245831,-3.784328 7.909528,-10.202316 6.883125,-16.589804l-24.737875,-142.910582l104.35041,-102.179873c4.928429,-4.548598 6.744098,-11.557824 4.645886,-17.927163c-2.099931,-6.369512 -7.725442,-10.925821 -14.391351,-11.654486l-143.934032,-20.291304l-64.279176,-130.605479c-2.82733,-5.916025 -8.786802,-9.696123 -15.343644,-9.732465l0,0z" fill=" rgb(245, 121, 0)" id="path2426"/>
   <path d="m238.903373,44.531498l-63.219081,129.347c-0.578583,1.236458 -1.585702,2.22175 -2.834533,2.773997c-0.33912,0.169625 -0.695946,0.304769 -1.061922,0.40142l-141.435548,20.292926l102.644241,99.804083c1.372175,1.378189 1.939175,3.363656 1.505816,5.25854l-24.074961,140.996511l126.76876,-66.712354c1.606555,-0.808193 3.501158,-0.804527 5.104078,0.009075l126.459426,66.497346l-24.386447,-141.342423c-0.319576,-1.800126 0.249003,-3.643657 1.527448,-4.950883l102.627811,-100.31351l-141.406886,-20.034427c-1.833331,-0.235937 -3.433093,-1.353085 -4.290531,-2.989146l-63.927671,-129.038154z" fill=" url(#linearGradient3223)" id="path2428"/>
  </g>
 </g>
</svg>